<?xml version="1.0" encoding="iso-8859-1"?>
<!-- Uploaded to: SVG Repo, www.svgrepo.com, Generator: SVG Repo Mixer Tools -->
<svg fill="#000000" version="1.1" id="Layer_1" xmlns="http://www.w3.org/2000/svg" xmlns:xlink="http://www.w3.org/1999/xlink" 
	 viewBox="0 0 496 496" xml:space="preserve">
<g>
	<g>
		<g>
			<path d="M179.832,444.412l266.024-272.904c16.816-17.216,30.656-36.96,41.376-59.184l2.424-5.104L385.544,3.116l-5.176,2.632
				c-21.624,11.016-41.192,25.408-58.16,42.784L56.456,321.164l-0.376,2.584c-5.208,36.48-15.208,72.136-29.712,105.968
				l-3.848,8.992l2.168,2.176L0,465.572v27.312h43.312L60,476.196l2.168,2.168l8.984-3.848
				c33.84-14.504,69.504-24.504,105.976-29.712L179.832,444.412z M36.688,476.884H16v-4.688l20-20l12.688,12.688L36.688,476.884z
				 M65.832,459.396l-24.344-24.344c12.792-30.048,21.952-61.512,27.728-93.648l90.264,90.264
				C127.336,437.444,95.88,446.604,65.832,459.396z M99.312,348.884l93.088-93.088c7.04-7.04,16.392-10.912,26.344-10.912
				c20.544,0,37.256,16.712,37.256,37.256c0,9.952-3.872,19.304-10.912,26.344L152,401.572L99.312,348.884z M163.312,412.884
				l93.088-93.088c10.064-10.064,15.6-23.432,15.6-37.656c0-29.368-23.888-53.256-53.256-53.256c-14.224,0-27.592,5.536-37.656,15.6
				L88,337.572l-12.76-12.76L333.664,59.708c14.384-14.736,30.8-27.168,48.84-36.992l87.776,87.768
				c-9.416,18.344-21.472,35.096-35.88,49.856L175.928,425.5L163.312,412.884z"/>
			
				<rect x="327.996" y="153.003" transform="matrix(-0.7071 -0.7071 0.7071 -0.7071 417.3918 614.6613)" width="16" height="135.767"/>
			
				<rect x="399.994" y="137.571" transform="matrix(-0.7071 -0.7071 0.7071 -0.7071 591.2129 542.6532)" width="16" height="22.624"/>
			<rect x="72" y="476.884" width="392" height="16"/>
			<rect x="480" y="476.884" width="16" height="16"/>
		</g>
	</g>
</g>
</svg>